<svg width="251" height="196" viewBox="0 0 251 196" fill="none" xmlns="http://www.w3.org/2000/svg">
<g filter="url(#filter0_ddddd_50_42)">
<rect x="23" y="4" width="205" height="112" rx="56" fill="#202024"/>
<path d="M83.4999 64.1667C85.8011 64.1667 87.6666 62.3012 87.6666 60C87.6666 57.6988 85.8011 55.8333 83.4999 55.8333C81.1987 55.8333 79.3333 57.6988 79.3333 60C79.3333 62.3012 81.1987 64.1667 83.4999 64.1667Z" fill="#19BCFE"/>
<path fill-rule="evenodd" clip-rule="evenodd" d="M75.1667 72.5C77.4679 72.5 79.3333 70.6345 79.3333 68.3333C79.3333 67.7051 79.3333 66.3163 79.3333 64.1667C77.4615 64.1667 76.0726 64.1667 75.1667 64.1667C72.8655 64.1667 71 66.0321 71 68.3333C71 70.6345 72.8655 72.5 75.1667 72.5Z" fill="#09CF83"/>
<path fill-rule="evenodd" clip-rule="evenodd" d="M75.1667 64.1667H79.3333V55.8333C77.3226 55.8333 75.9337 55.8333 75.1667 55.8333C72.8655 55.8333 71 57.6988 71 60C71 62.3012 72.8655 64.1667 75.1667 64.1667Z" fill="#A259FF"/>
<path fill-rule="evenodd" clip-rule="evenodd" d="M75.1667 55.8333H79.3333V47.5C77.3226 47.5 75.9337 47.5 75.1667 47.5C72.8655 47.5 71 49.3655 71 51.6667C71 53.9679 72.8655 55.8333 75.1667 55.8333Z" fill="#F24E1E"/>
<path fill-rule="evenodd" clip-rule="evenodd" d="M83.4999 55.8333H79.3333V47.5H83.4999C85.8011 47.5 87.6666 49.3655 87.6666 51.6667C87.6666 53.9679 85.8011 55.8333 83.4999 55.8333Z" fill="#FF7262"/>
<path d="M98.4849 72.5V49.2273H112.439V51.7273H101.303V59.5909H111.394V62.0909H101.303V72.5H98.4849ZM116.903 72.5V55.0455H119.584V72.5H116.903ZM118.266 52.1364C117.743 52.1364 117.293 51.9583 116.914 51.6023C116.543 51.2462 116.357 50.8182 116.357 50.3182C116.357 49.8182 116.543 49.3902 116.914 49.0341C117.293 48.678 117.743 48.5 118.266 48.5C118.789 48.5 119.236 48.678 119.607 49.0341C119.986 49.3902 120.175 49.8182 120.175 50.3182C120.175 50.8182 119.986 51.2462 119.607 51.6023C119.236 51.9583 118.789 52.1364 118.266 52.1364ZM131.542 79.4091C130.246 79.4091 129.133 79.2424 128.201 78.9091C127.269 78.5833 126.493 78.1515 125.871 77.6136C125.258 77.0833 124.769 76.5152 124.405 75.9091L126.542 74.4091C126.784 74.7273 127.091 75.0909 127.462 75.5C127.833 75.9167 128.341 76.2765 128.985 76.5795C129.636 76.8902 130.489 77.0455 131.542 77.0455C132.951 77.0455 134.114 76.7045 135.03 76.0227C135.947 75.3409 136.405 74.2727 136.405 72.8182V69.2727H136.178C135.981 69.5909 135.701 69.9848 135.337 70.4545C134.981 70.9167 134.466 71.3295 133.792 71.6932C133.125 72.0492 132.224 72.2273 131.087 72.2273C129.678 72.2273 128.413 71.8939 127.292 71.2273C126.178 70.5606 125.296 69.5909 124.644 68.3182C124 67.0455 123.678 65.5 123.678 63.6818C123.678 61.8939 123.993 60.3371 124.621 59.0114C125.25 57.678 126.125 56.6477 127.246 55.9205C128.368 55.1856 129.663 54.8182 131.133 54.8182C132.269 54.8182 133.171 55.0076 133.837 55.3864C134.511 55.7576 135.027 56.1818 135.383 56.6591C135.746 57.1288 136.027 57.5152 136.224 57.8182H136.496V55.0455H139.087V73C139.087 74.5 138.746 75.7197 138.064 76.6591C137.39 77.6061 136.481 78.2992 135.337 78.7386C134.201 79.1856 132.936 79.4091 131.542 79.4091ZM131.451 69.8182C132.527 69.8182 133.436 69.572 134.178 69.0795C134.921 68.5871 135.485 67.8788 135.871 66.9545C136.258 66.0303 136.451 64.9242 136.451 63.6364C136.451 62.3788 136.261 61.2689 135.883 60.3068C135.504 59.3447 134.943 58.5909 134.201 58.0455C133.458 57.5 132.542 57.2273 131.451 57.2273C130.314 57.2273 129.368 57.5152 128.61 58.0909C127.86 58.6667 127.296 59.4394 126.917 60.4091C126.546 61.3788 126.36 62.4545 126.36 63.6364C126.36 64.8485 126.549 65.9205 126.928 66.8523C127.314 67.7765 127.883 68.5038 128.633 69.0341C129.39 69.5568 130.33 69.8182 131.451 69.8182ZM143.996 72.5V55.0455H146.587V57.7727H146.814C147.178 56.8409 147.765 56.1174 148.576 55.6023C149.386 55.0795 150.36 54.8182 151.496 54.8182C152.648 54.8182 153.606 55.0795 154.371 55.6023C155.144 56.1174 155.746 56.8409 156.178 57.7727H156.36C156.807 56.8712 157.477 56.1553 158.371 55.625C159.265 55.0871 160.337 54.8182 161.587 54.8182C163.148 54.8182 164.424 55.3068 165.417 56.2841C166.409 57.2538 166.905 58.7652 166.905 60.8182V72.5H164.224V60.8182C164.224 59.5303 163.871 58.6098 163.167 58.0568C162.462 57.5038 161.633 57.2273 160.678 57.2273C159.451 57.2273 158.5 57.5985 157.826 58.3409C157.152 59.0758 156.814 60.0076 156.814 61.1364V72.5H154.087V60.5455C154.087 59.553 153.765 58.7538 153.121 58.1477C152.477 57.5341 151.648 57.2273 150.633 57.2273C149.936 57.2273 149.284 57.4129 148.678 57.7841C148.08 58.1553 147.595 58.6705 147.224 59.3295C146.86 59.9811 146.678 60.7348 146.678 61.5909V72.5H143.996ZM176.945 72.9091C175.839 72.9091 174.835 72.7008 173.934 72.2841C173.032 71.8598 172.316 71.25 171.786 70.4545C171.256 69.6515 170.991 68.6818 170.991 67.5455C170.991 66.5455 171.188 65.7348 171.582 65.1136C171.975 64.4848 172.502 63.9924 173.161 63.6364C173.82 63.2803 174.547 63.0152 175.343 62.8409C176.146 62.6591 176.953 62.5152 177.763 62.4091C178.824 62.2727 179.684 62.1705 180.343 62.1023C181.01 62.0265 181.494 61.9015 181.797 61.7273C182.108 61.553 182.263 61.25 182.263 60.8182V60.7273C182.263 59.6061 181.957 58.7348 181.343 58.1136C180.737 57.4924 179.816 57.1818 178.582 57.1818C177.301 57.1818 176.297 57.4621 175.57 58.0227C174.843 58.5833 174.332 59.1818 174.036 59.8182L171.491 58.9091C171.945 57.8485 172.551 57.0227 173.309 56.4318C174.074 55.8333 174.907 55.4167 175.809 55.1818C176.718 54.9394 177.612 54.8182 178.491 54.8182C179.051 54.8182 179.695 54.8864 180.422 55.0227C181.157 55.1515 181.866 55.4205 182.547 55.8295C183.237 56.2386 183.809 56.8561 184.263 57.6818C184.718 58.5076 184.945 59.6136 184.945 61V72.5H182.263V70.1364H182.127C181.945 70.5152 181.642 70.9205 181.218 71.3523C180.794 71.7841 180.229 72.1515 179.525 72.4545C178.82 72.7576 177.96 72.9091 176.945 72.9091ZM177.354 70.5C178.415 70.5 179.309 70.2917 180.036 69.875C180.771 69.4583 181.324 68.9205 181.695 68.2614C182.074 67.6023 182.263 66.9091 182.263 66.1818V63.7273C182.15 63.8636 181.9 63.9886 181.513 64.1023C181.135 64.2083 180.695 64.303 180.195 64.3864C179.703 64.4621 179.222 64.5303 178.752 64.5909C178.29 64.6439 177.915 64.6894 177.627 64.7273C176.93 64.8182 176.278 64.9659 175.672 65.1705C175.074 65.3674 174.589 65.6667 174.218 66.0682C173.854 66.4621 173.672 67 173.672 67.6818C173.672 68.6136 174.017 69.3182 174.707 69.7955C175.403 70.2652 176.286 70.5 177.354 70.5Z" fill="white"/>
</g>
<defs>
<filter id="filter0_ddddd_50_42" x="0" y="0" width="251" height="196" filterUnits="userSpaceOnUse" color-interpolation-filters="sRGB">
<feFlood flood-opacity="0" result="BackgroundImageFix"/>
<feColorMatrix in="SourceAlpha" type="matrix" values="0 0 0 0 0 0 0 0 0 0 0 0 0 0 0 0 0 0 127 0" result="hardAlpha"/>
<feOffset/>
<feColorMatrix type="matrix" values="0 0 0 0 0 0 0 0 0 0 0 0 0 0 0 0 0 0 0.15 0"/>
<feBlend mode="normal" in2="BackgroundImageFix" result="effect1_dropShadow_50_42"/>
<feColorMatrix in="SourceAlpha" type="matrix" values="0 0 0 0 0 0 0 0 0 0 0 0 0 0 0 0 0 0 127 0" result="hardAlpha"/>
<feOffset dy="4"/>
<feGaussianBlur stdDeviation="4"/>
<feColorMatrix type="matrix" values="0 0 0 0 0 0 0 0 0 0 0 0 0 0 0 0 0 0 0.15 0"/>
<feBlend mode="normal" in2="effect1_dropShadow_50_42" result="effect2_dropShadow_50_42"/>
<feColorMatrix in="SourceAlpha" type="matrix" values="0 0 0 0 0 0 0 0 0 0 0 0 0 0 0 0 0 0 127 0" result="hardAlpha"/>
<feOffset dy="14"/>
<feGaussianBlur stdDeviation="7"/>
<feColorMatrix type="matrix" values="0 0 0 0 0 0 0 0 0 0 0 0 0 0 0 0 0 0 0.13 0"/>
<feBlend mode="normal" in2="effect2_dropShadow_50_42" result="effect3_dropShadow_50_42"/>
<feColorMatrix in="SourceAlpha" type="matrix" values="0 0 0 0 0 0 0 0 0 0 0 0 0 0 0 0 0 0 127 0" result="hardAlpha"/>
<feOffset dy="32"/>
<feGaussianBlur stdDeviation="9.5"/>
<feColorMatrix type="matrix" values="0 0 0 0 0 0 0 0 0 0 0 0 0 0 0 0 0 0 0.08 0"/>
<feBlend mode="normal" in2="effect3_dropShadow_50_42" result="effect4_dropShadow_50_42"/>
<feColorMatrix in="SourceAlpha" type="matrix" values="0 0 0 0 0 0 0 0 0 0 0 0 0 0 0 0 0 0 127 0" result="hardAlpha"/>
<feOffset dy="57"/>
<feGaussianBlur stdDeviation="11.5"/>
<feColorMatrix type="matrix" values="0 0 0 0 0 0 0 0 0 0 0 0 0 0 0 0 0 0 0.02 0"/>
<feBlend mode="normal" in2="effect4_dropShadow_50_42" result="effect5_dropShadow_50_42"/>
<feBlend mode="normal" in="SourceGraphic" in2="effect5_dropShadow_50_42" result="shape"/>
</filter>
</defs>
</svg>
