<svg width="52" height="28" viewBox="0 0 52 28" fill="none" xmlns="http://www.w3.org/2000/svg">
<path d="M0 14C0 6.26801 6.26801 0 14 0H42.6667C47.8213 0 52 4.17868 52 9.33333C52 19.6426 43.6427 28 33.3333 28H14C6.26801 28 0 21.732 0 14Z" fill="white"/>
<path d="M0.5 14C0.5 6.54416 6.54416 0.5 14 0.5H42.6667C47.5452 0.5 51.5 4.45482 51.5 9.33333C51.5 19.3665 43.3665 27.5 33.3333 27.5H14C6.54416 27.5 0.5 21.4558 0.5 14Z" stroke="black" stroke-opacity="0.4"/>
<path d="M23.56 9.416C24.232 9.416 24.824 9.52267 25.336 9.736C25.848 9.93867 26.248 10.2427 26.536 10.648C26.8347 11.0533 26.984 11.5547 26.984 12.152C26.984 12.6107 26.8827 13.0107 26.68 13.352C26.488 13.6933 26.2267 13.9973 25.896 14.264C25.5653 14.52 25.2027 14.7493 24.808 14.952C25.2773 15.176 25.704 15.432 26.088 15.72C26.472 15.9973 26.776 16.3227 27 16.696C27.2347 17.0693 27.352 17.5173 27.352 18.04C27.352 18.68 27.1973 19.2347 26.888 19.704C26.5787 20.1627 26.1413 20.52 25.576 20.776C25.0213 21.032 24.3653 21.16 23.608 21.16C22.7867 21.16 22.088 21.0373 21.512 20.792C20.9467 20.5467 20.5147 20.2 20.216 19.752C19.928 19.2933 19.784 18.7387 19.784 18.088C19.784 17.5653 19.8907 17.112 20.104 16.728C20.328 16.344 20.6213 16.0133 20.984 15.736C21.3467 15.4587 21.736 15.224 22.152 15.032C21.7787 14.8187 21.4373 14.5787 21.128 14.312C20.8293 14.0347 20.5893 13.72 20.408 13.368C20.2373 13.016 20.152 12.6053 20.152 12.136C20.152 11.5493 20.3013 11.0587 20.6 10.664C20.8987 10.2587 21.304 9.94933 21.816 9.736C22.328 9.52267 22.9093 9.416 23.56 9.416ZM21.16 18.104C21.16 18.6587 21.3573 19.1227 21.752 19.496C22.1467 19.8587 22.7547 20.04 23.576 20.04C24.0987 20.04 24.536 19.9547 24.888 19.784C25.24 19.6133 25.5067 19.3787 25.688 19.08C25.88 18.7813 25.976 18.44 25.976 18.056C25.976 17.6827 25.8747 17.3573 25.672 17.08C25.48 16.792 25.2027 16.536 24.84 16.312C24.488 16.088 24.0667 15.8853 23.576 15.704L23.32 15.608C22.8507 15.8107 22.456 16.0293 22.136 16.264C21.816 16.4987 21.5707 16.7653 21.4 17.064C21.24 17.3627 21.16 17.7093 21.16 18.104ZM23.544 10.552C22.9573 10.552 22.472 10.696 22.088 10.984C21.7147 11.2613 21.528 11.6667 21.528 12.2C21.528 12.5947 21.6187 12.9253 21.8 13.192C21.992 13.4587 22.248 13.688 22.568 13.88C22.888 14.0613 23.24 14.2373 23.624 14.408C23.9973 14.248 24.328 14.072 24.616 13.88C24.9147 13.688 25.1493 13.4587 25.32 13.192C25.5013 12.9147 25.592 12.584 25.592 12.2C25.592 11.6667 25.4053 11.2613 25.032 10.984C24.6587 10.696 24.1627 10.552 23.544 10.552Z" fill="black"/>
</svg>
