<svg width="52" height="28" viewBox="0 0 52 28" fill="none" xmlns="http://www.w3.org/2000/svg">
<path d="M0 14C0 6.26801 6.26801 0 14 0H42.6667C47.8213 0 52 4.17868 52 9.33333C52 19.6426 43.6427 28 33.3333 28H14C6.26801 28 0 21.732 0 14Z" fill="white"/>
<path d="M0.5 14C0.5 6.54416 6.54416 0.5 14 0.5H42.6667C47.5452 0.5 51.5 4.45482 51.5 9.33333C51.5 19.3665 43.3665 27.5 33.3333 27.5H14C6.54416 27.5 0.5 21.4558 0.5 14Z" stroke="black" stroke-opacity="0.4"/>
<path d="M18.68 20H17.304V12.016C17.304 11.7067 17.304 11.4453 17.304 11.232C17.3147 11.0187 17.3253 10.8213 17.336 10.64C17.3467 10.448 17.3573 10.2507 17.368 10.048C17.1973 10.2187 17.0427 10.3627 16.904 10.48C16.7653 10.5973 16.5893 10.7467 16.376 10.928L15.16 11.92L14.424 10.976L17.512 8.576H18.68V20ZM26.7163 8.416C27.3883 8.416 27.9803 8.52267 28.4923 8.736C29.0043 8.93867 29.4043 9.24267 29.6923 9.648C29.9909 10.0533 30.1403 10.5547 30.1403 11.152C30.1403 11.6107 30.0389 12.0107 29.8363 12.352C29.6443 12.6933 29.3829 12.9973 29.0523 13.264C28.7216 13.52 28.3589 13.7493 27.9643 13.952C28.4336 14.176 28.8603 14.432 29.2443 14.72C29.6283 14.9973 29.9323 15.3227 30.1562 15.696C30.3909 16.0693 30.5083 16.5173 30.5083 17.04C30.5083 17.68 30.3536 18.2347 30.0443 18.704C29.7349 19.1627 29.2976 19.52 28.7323 19.776C28.1776 20.032 27.5216 20.16 26.7643 20.16C25.9429 20.16 25.2443 20.0373 24.6683 19.792C24.1029 19.5467 23.6709 19.2 23.3723 18.752C23.0843 18.2933 22.9403 17.7387 22.9403 17.088C22.9403 16.5653 23.0469 16.112 23.2603 15.728C23.4843 15.344 23.7776 15.0133 24.1403 14.736C24.5029 14.4587 24.8923 14.224 25.3083 14.032C24.9349 13.8187 24.5936 13.5787 24.2843 13.312C23.9856 13.0347 23.7456 12.72 23.5643 12.368C23.3936 12.016 23.3083 11.6053 23.3083 11.136C23.3083 10.5493 23.4576 10.0587 23.7563 9.664C24.0549 9.25867 24.4603 8.94933 24.9723 8.736C25.4843 8.52267 26.0656 8.416 26.7163 8.416ZM24.3163 17.104C24.3163 17.6587 24.5136 18.1227 24.9083 18.496C25.3029 18.8587 25.9109 19.04 26.7323 19.04C27.2549 19.04 27.6923 18.9547 28.0443 18.784C28.3963 18.6133 28.6629 18.3787 28.8443 18.08C29.0363 17.7813 29.1323 17.44 29.1323 17.056C29.1323 16.6827 29.0309 16.3573 28.8283 16.08C28.6363 15.792 28.3589 15.536 27.9963 15.312C27.6443 15.088 27.2229 14.8853 26.7323 14.704L26.4763 14.608C26.0069 14.8107 25.6123 15.0293 25.2923 15.264C24.9723 15.4987 24.7269 15.7653 24.5563 16.064C24.3963 16.3627 24.3163 16.7093 24.3163 17.104ZM26.7003 9.552C26.1136 9.552 25.6283 9.696 25.2443 9.984C24.8709 10.2613 24.6843 10.6667 24.6843 11.2C24.6843 11.5947 24.7749 11.9253 24.9563 12.192C25.1483 12.4587 25.4043 12.688 25.7243 12.88C26.0443 13.0613 26.3963 13.2373 26.7803 13.408C27.1536 13.248 27.4843 13.072 27.7723 12.88C28.0709 12.688 28.3056 12.4587 28.4763 12.192C28.6576 11.9147 28.7483 11.584 28.7483 11.2C28.7483 10.6667 28.5616 10.2613 28.1883 9.984C27.8149 9.696 27.3189 9.552 26.7003 9.552Z" fill="black"/>
</svg>
