<svg width="24" height="13" viewBox="0 0 24 13" fill="none" xmlns="http://www.w3.org/2000/svg">
<rect width="24" height="13" rx="6.5" fill="#FFF"/>
<path d="M11.9887 2.76C12.4087 2.76 12.7787 2.82667 13.0987 2.96C13.4187 3.08667 13.6687 3.27667 13.8487 3.53C14.0353 3.78333 14.1287 4.09667 14.1287 4.47C14.1287 4.75667 14.0653 5.00667 13.9387 5.22C13.8187 5.43333 13.6553 5.62333 13.4487 5.79C13.242 5.95 13.0153 6.09333 12.7687 6.22C13.062 6.36 13.3287 6.52 13.5687 6.7C13.8087 6.87333 13.9987 7.07667 14.1387 7.31C14.2853 7.54333 14.3587 7.82333 14.3587 8.15C14.3587 8.55 14.262 8.89667 14.0687 9.19C13.8753 9.47667 13.602 9.7 13.2487 9.86C12.902 10.02 12.492 10.1 12.0187 10.1C11.5053 10.1 11.0687 10.0233 10.7087 9.87C10.3553 9.71667 10.0853 9.5 9.89867 9.22C9.71867 8.93333 9.62867 8.58667 9.62867 8.18C9.62867 7.85333 9.69534 7.57 9.82867 7.33C9.96867 7.09 10.152 6.88333 10.3787 6.71C10.6053 6.53667 10.8487 6.39 11.1087 6.27C10.8753 6.13667 10.662 5.98667 10.4687 5.82C10.282 5.64667 10.132 5.45 10.0187 5.23C9.91201 5.01 9.85867 4.75333 9.85867 4.46C9.85867 4.09333 9.95201 3.78667 10.1387 3.54C10.3253 3.28667 10.5787 3.09333 10.8987 2.96C11.2187 2.82667 11.582 2.76 11.9887 2.76ZM10.4887 8.19C10.4887 8.53667 10.612 8.82667 10.8587 9.06C11.1053 9.28667 11.4853 9.4 11.9987 9.4C12.3253 9.4 12.5987 9.34667 12.8187 9.24C13.0387 9.13333 13.2053 8.98667 13.3187 8.8C13.4387 8.61333 13.4987 8.4 13.4987 8.16C13.4987 7.92667 13.4353 7.72333 13.3087 7.55C13.1887 7.37 13.0153 7.21 12.7887 7.07C12.5687 6.93 12.3053 6.80333 11.9987 6.69L11.8387 6.63C11.5453 6.75667 11.2987 6.89333 11.0987 7.04C10.8987 7.18667 10.7453 7.35333 10.6387 7.54C10.5387 7.72667 10.4887 7.94333 10.4887 8.19ZM11.9787 3.47C11.612 3.47 11.3087 3.56 11.0687 3.74C10.8353 3.91333 10.7187 4.16667 10.7187 4.5C10.7187 4.74667 10.7753 4.95333 10.8887 5.12C11.0087 5.28667 11.1687 5.43 11.3687 5.55C11.5687 5.66333 11.7887 5.77333 12.0287 5.88C12.262 5.78 12.4687 5.67 12.6487 5.55C12.8353 5.43 12.982 5.28667 13.0887 5.12C13.202 4.94667 13.2587 4.74 13.2587 4.5C13.2587 4.16667 13.142 3.91333 12.9087 3.74C12.6753 3.56 12.3653 3.47 11.9787 3.47Z" fill="black" fill-opacity="0.7"/>
</svg>
