<svg width="24" height="13" viewBox="0 0 24 13" fill="none" xmlns="http://www.w3.org/2000/svg">
<rect width="24" height="13" rx="6.5" fill="#FFF"/>
<path d="M6.96602 10H6.10602V5.01C6.10602 4.81667 6.10602 4.65333 6.10602 4.52C6.11268 4.38667 6.11935 4.26333 6.12602 4.15C6.13268 4.03 6.13935 3.90667 6.14602 3.78C6.03935 3.88667 5.94268 3.97667 5.85602 4.05C5.76935 4.12333 5.65935 4.21667 5.52602 4.33L4.76602 4.95L4.30602 4.36L6.23602 2.86H6.96602V10ZM11.8887 5.62C12.3753 5.62 12.7987 5.70333 13.1587 5.87C13.5187 6.03667 13.7953 6.27667 13.9887 6.59C14.1887 6.89667 14.2887 7.27333 14.2887 7.72C14.2887 8.21333 14.182 8.64 13.9687 9C13.7553 9.35333 13.4487 9.62667 13.0487 9.82C12.6553 10.0067 12.1787 10.1 11.6187 10.1C11.252 10.1 10.9053 10.0667 10.5787 10C10.2587 9.93333 9.98867 9.83667 9.76867 9.71V8.88C10.0087 9.02667 10.2987 9.14333 10.6387 9.23C10.9853 9.31 11.3153 9.35 11.6287 9.35C11.982 9.35 12.2887 9.29667 12.5487 9.19C12.8153 9.07667 13.022 8.90667 13.1687 8.68C13.3153 8.44667 13.3887 8.15667 13.3887 7.81C13.3887 7.34333 13.2453 6.98667 12.9587 6.74C12.672 6.48667 12.2187 6.36 11.5987 6.36C11.412 6.36 11.1987 6.37667 10.9587 6.41C10.7187 6.44333 10.5253 6.47667 10.3787 6.51L9.93867 6.23L10.2087 2.86H13.7887V3.66H10.9587L10.7887 5.73C10.902 5.71 11.0553 5.68667 11.2487 5.66C11.442 5.63333 11.6553 5.62 11.8887 5.62ZM18.0713 6.12H20.0613V6.83H18.0713V8.89H17.3513V6.83H15.3613V6.12H17.3513V4.05H18.0713V6.12Z" fill="black" fill-opacity="0.7"/>
</svg>
